<?xml version="1.0" encoding="UTF-8"?>
<svg version="1.1" xmlns="http://www.w3.org/2000/svg" width="512" height="512">
<path d="M0 0 C4.4698805 3.26645113 7.49026269 7.40047557 9.234375 12.6328125 C9.32792594 14.17357877 9.36507525 15.71811647 9.3671875 17.26171875 C9.36920166 18.20088135 9.37121582 19.14004395 9.37329102 20.10766602 C9.36869873 21.12658936 9.36410645 22.1455127 9.359375 23.1953125 C9.35538696 24.79040649 9.35538696 24.79040649 9.35131836 26.41772461 C9.28154129 38.50152313 8.77405037 50.56255637 8.234375 62.6328125 C8.13755265 64.8840945 8.04119671 67.1353966 7.9453125 69.38671875 C7.71367451 74.80232548 7.47641468 80.21766117 7.234375 85.6328125 C8.01566772 85.47962051 8.79696045 85.32642853 9.60192871 85.16859436 C14.18427103 84.49270387 18.72953872 84.27233891 23.35351562 84.06030273 C24.35958862 84.01138885 25.36566162 83.96247498 26.40222168 83.91207886 C29.73151935 83.75136735 33.06104179 83.59608177 36.390625 83.44140625 C38.73157265 83.33084576 41.07251495 83.22017182 43.41345215 83.10939026 C48.33606567 82.87741447 53.25880699 82.64839708 58.18164062 82.42114258 C63.1740709 82.19031602 68.16623138 81.95464858 73.15820312 81.71411133 C120.59311738 79.43033711 120.59311738 79.43033711 139.265625 79.23046875 C140.42501587 79.20617294 141.58440674 79.18187714 142.77893066 79.15684509 C150.17347063 79.15602398 154.61541777 80.28546058 160.16015625 85.4140625 C160.61777344 85.98125 161.07539063 86.5484375 161.546875 87.1328125 C162.25263672 87.98359375 162.25263672 87.98359375 162.97265625 88.8515625 C167.33731732 95.01343696 166.87749497 101.27815847 166.234375 108.6328125 C164.76569932 114.54469687 161.32659621 117.86370901 156.52734375 121.40625 C149.68363848 125.06710767 142.47549534 125.08839024 134.88012695 125.41064453 C133.64992325 125.46945801 132.41971954 125.52827148 131.15223694 125.58886719 C127.79266985 125.74775396 124.43292794 125.89921877 121.0728724 126.04717493 C117.54149701 126.20430508 114.01054881 126.37052978 110.47953796 126.53561401 C104.54593035 126.81172074 98.6120653 127.08156836 92.67797852 127.34716797 C85.0931586 127.68668333 77.50884838 128.03644846 69.92464924 128.38952827 C63.3706739 128.69456235 56.81648139 128.9948314 50.26225257 129.29436255 C48.17289946 129.39004144 46.08357655 129.48635949 43.99425697 129.58276749 C40.07485793 129.76325832 36.1552449 129.93879188 32.2355957 130.11376953 C31.0928418 130.16673187 29.95008789 130.21969421 28.77270508 130.27426147 C21.58835129 130.58987818 14.42537063 130.69333968 7.234375 130.6328125 C7.35262805 136.95007608 7.47702262 143.2671884 7.60668945 149.58422852 C7.64996552 151.7326342 7.69164573 153.88107265 7.73168945 156.02954102 C7.7895696 159.12005482 7.85321292 162.2104048 7.91796875 165.30078125 C7.94303749 166.73855171 7.94303749 166.73855171 7.96861267 168.20536804 C7.98855789 169.10592422 8.00850311 170.00648041 8.02905273 170.93432617 C8.04459702 171.72264328 8.0601413 172.51096039 8.07615662 173.32316589 C8.24759231 175.82575672 8.69401361 178.18555608 9.234375 180.6328125 C10.38808594 180.30667969 11.54179687 179.98054687 12.73046875 179.64453125 C32.99687578 174.12826859 53.26131236 172.00010558 74.234375 172.6328125 C74.21246094 171.57964844 74.19054687 170.52648437 74.16796875 169.44140625 C74.31040444 161.27230038 76.73461458 155.15113084 82.4140625 149.2578125 C87.02603136 145.14069008 92.10696747 143.6328125 98.234375 143.6328125 C105.31416696 144.4020938 110.45592497 146.6955939 115.421875 151.9453125 C121.40846009 160.82197316 120.79886139 168.33748271 119.234375 178.6328125 C119.94754883 178.75285645 120.66072266 178.87290039 121.39550781 178.99658203 C149.42102663 183.77846429 175.06131198 189.83324454 197.234375 208.6328125 C197.75692871 209.07318848 198.27948242 209.51356445 198.81787109 209.96728516 C224.99331774 232.27810909 241.07875934 264.28109367 243.95703125 298.53515625 C246.54337354 334.68610682 234.99437678 370.44602652 211.3828125 398.01953125 C200.8556091 409.9355339 188.91942187 419.57993264 175.234375 427.6328125 C174.64962402 427.97940918 174.06487305 428.32600586 173.46240234 428.68310547 C154.51222813 439.75774749 123.15262399 453.77617614 100.859375 448.01953125 C94.93651669 445.39357649 90.07588223 440.55191763 87.3203125 434.6875 C85.51119254 428.72946492 85.71653145 422.11170991 88.2109375 416.39453125 C91.25161818 411.18613951 94.77064865 406.7854952 100.6171875 404.83984375 C103.80967088 404.03505337 107.01789401 403.33577476 110.234375 402.6328125 C131.62285242 397.55341089 151.56502672 390.51123907 168.234375 375.6328125 C169.06582031 374.89546875 169.89726562 374.158125 170.75390625 373.3984375 C186.40464417 358.68530139 196.55533758 337.43699541 197.546875 315.984375 C197.89066101 303.92409363 197.21279626 293.07077362 193.234375 281.6328125 C192.821875 280.446875 192.409375 279.2609375 191.984375 278.0390625 C183.99067821 257.50979574 168.64930477 242.20943625 148.859375 232.8828125 C136.7400473 228.15331876 123.10846924 226.17274296 110.234375 224.6328125 C109.98905029 225.56101807 109.74372559 226.48922363 109.4909668 227.44555664 C96.07396482 277.96774025 78.60422527 328.51111648 45.234375 369.6328125 C45.84925781 370.54675781 46.46414062 371.46070313 47.09765625 372.40234375 C51.99279485 379.80322057 55.03880656 385.60855297 54.234375 394.6328125 C52.61742224 401.77541486 49.02362247 405.62455432 43.109375 409.8828125 C37.38849535 413.36508707 31.76814055 413.22226276 25.234375 412.6328125 C19.23887425 410.89282472 15.35641664 407.1670583 11.234375 402.6328125 C7.46056817 404.01311539 4.02719076 405.77894158 0.5144043 407.70410156 C-25.44929651 421.90516053 -57.94514733 431.60418442 -87.578125 424.0703125 C-107.61518122 417.97023619 -123.38717365 405.59686863 -133.609375 387.33984375 C-145.56510529 362.81301469 -142.95308048 335.90336582 -134.765625 310.6328125 C-130.98382247 299.89330418 -125.93588979 289.69708014 -120.765625 279.5703125 C-120.29181396 278.6309082 -119.81800293 277.69150391 -119.32983398 276.72363281 C-115.8334417 270.04045244 -111.64221693 264.37124238 -106.765625 258.6328125 C-106.23211426 257.98932861 -105.69860352 257.34584473 -105.14892578 256.68286133 C-96.73756888 246.56107438 -87.89204333 237.07149444 -77.765625 228.6328125 C-77.01249023 228.00101074 -77.01249023 228.00101074 -76.24414062 227.35644531 C-64.21075478 217.31464772 -51.46247547 208.27421329 -37.765625 200.6328125 C-37.70151223 190.59649333 -37.88816019 180.60091287 -38.265625 170.5703125 C-38.71870463 157.92012103 -38.88516354 145.29061551 -38.765625 132.6328125 C-39.34277252 132.79168442 -39.91992004 132.95055634 -40.51455688 133.11424255 C-42.65455829 133.60722649 -44.59342923 133.82305092 -46.78271484 133.92993164 C-47.56752228 133.96986237 -48.35232971 134.00979309 -49.16091919 134.05093384 C-50.00758148 134.08955536 -50.85424377 134.12817688 -51.7265625 134.16796875 C-53.06241898 134.23291031 -53.06241898 134.23291031 -54.42526245 134.29916382 C-65.20249894 134.81236556 -75.98299157 135.25057176 -86.765625 135.6328125 C-87.59622437 135.66242065 -88.42682373 135.69202881 -89.28259277 135.72253418 C-94.19372304 135.89111425 -99.10210497 135.999761 -104.015625 136.0703125 C-105.80299072 136.12167358 -105.80299072 136.12167358 -107.62646484 136.17407227 C-115.55845352 136.21520968 -120.56805449 134.72696461 -126.28173828 129.15405273 C-131.54193275 123.2653945 -132.34210081 117.66582113 -132.203125 109.99609375 C-131.3898369 103.74394145 -128.57122746 98.96006512 -123.7265625 94.94140625 C-118.46306591 91.4816922 -114.00333416 90.54281369 -107.73461914 90.24389648 C-105.90605125 90.1539164 -105.90605125 90.1539164 -104.0405426 90.06211853 C-102.72392136 90.00165848 -101.40730011 89.94119843 -100.05078125 89.87890625 C-98.67515322 89.81333847 -97.29953794 89.74750253 -95.92393494 89.68141174 C-93.0365625 89.54358391 -90.14907599 89.4085776 -87.26147461 89.27563477 C-83.59694901 89.10676355 -79.93275514 88.93166234 -76.26862431 88.75445461 C-73.42277248 88.61742409 -70.57678178 88.48347386 -67.7307415 88.35042 C-65.73416467 88.2566483 -63.73769338 88.16063781 -61.7412262 88.06455994 C-53.74293417 87.70014268 -45.77194223 87.55744467 -37.765625 87.6328125 C-37.77609863 86.73602783 -37.78657227 85.83924316 -37.79736328 84.9152832 C-37.96792067 67.86278239 -37.92565578 50.83701877 -37.07391357 33.80111694 C-36.9939552 32.20027279 -36.91825009 30.59921002 -36.84698486 28.99795532 C-35.93371913 8.98348233 -35.93371913 8.98348233 -29.515625 2.8203125 C-20.81504913 -5.11896298 -10.11079956 -5.63499976 0 0 Z M29.984375 222.0703125 C29.12859863 222.27551514 28.27282227 222.48071777 27.39111328 222.69213867 C22.17384038 224.00286443 17.25829935 225.71195862 12.234375 227.6328125 C13.22383088 236.10189664 14.21499044 244.57077912 15.20814991 253.03942966 C15.66958622 256.97451805 16.13050011 260.90966596 16.59008789 264.8449707 C18.68628536 282.79066551 20.82634735 300.72563327 23.234375 318.6328125 C23.894375 318.6328125 24.554375 318.6328125 25.234375 318.6328125 C39.17417781 294.2095924 49.82834579 269.04919586 58.234375 242.1953125 C58.60812256 241.00583008 58.98187012 239.81634766 59.36694336 238.59082031 C61.4842242 231.65833032 63.1318275 224.79846452 64.234375 217.6328125 C52.69558758 217.6328125 41.17821873 219.38447072 29.984375 222.0703125 Z M-41.078125 257.4453125 C-41.7992749 258.0333667 -42.5204248 258.6214209 -43.26342773 259.22729492 C-52.41423811 266.74508124 -61.23108901 274.45404923 -68.765625 283.6328125 C-69.68021484 284.64601563 -69.68021484 284.64601563 -70.61328125 285.6796875 C-85.13067762 302.41942884 -96.10444253 327.88882161 -96.140625 350.1953125 C-96.16511719 350.99388672 -96.18960938 351.79246094 -96.21484375 352.61523438 C-96.25945808 361.73886551 -92.15944975 368.12109174 -86.0078125 374.64453125 C-79.07995007 380.78787964 -71.02752663 381.40662141 -62.04296875 381.01171875 C-43.51025473 379.65856339 -27.06071042 371.71604519 -11.765625 361.6328125 C-12.43895178 355.35425891 -14.16718052 349.55097236 -15.953125 343.5078125 C-24.56201621 313.40333242 -28.67718175 282.59692152 -32.765625 251.6328125 C-35.54689346 251.6328125 -39.01102507 255.75948342 -41.078125 257.4453125 Z " fill="#FF5621" transform="translate(204.765625,33.3671875)"/>
<path d="M0 0 C0.9175708 0.00757324 1.8351416 0.01514648 2.78051758 0.02294922 C9.96758772 0.19698874 16.11182727 1.25549195 22.625 4.4375 C23.47964844 4.85 24.33429688 5.2625 25.21484375 5.6875 C38.43069803 12.85542096 45.62030429 23.71212119 50.75390625 37.4609375 C55.16380114 53.16253636 52.22801277 71.43381797 50.625 87.4375 C51.61391235 87.37018677 51.61391235 87.37018677 52.62280273 87.30151367 C73.42148462 85.91262872 94.23774259 84.88795646 115.05931473 83.91528702 C117.23619729 83.81314762 119.41301194 83.70966022 121.58981323 83.60580444 C125.09555391 83.43880606 128.60145642 83.27569175 132.10750771 83.11535072 C134.0246682 83.02698184 135.94168234 82.93545474 137.85868835 82.84379578 C158.49733851 81.91660011 176.27910753 81.63238478 192.875 95.625 C203.72901871 105.91047487 209.41431664 119.22465671 209.875 134.0625 C209.69586104 148.57275613 204.13284901 161.71951016 194.10546875 172.18359375 C186.87717987 178.75166097 178.85447385 182.51783136 169.625 185.4375 C167.62453035 186.10275606 165.62441546 186.76908228 163.625 187.4375 C164.75292969 187.69402344 165.88085938 187.95054687 167.04296875 188.21484375 C195.85679745 195.09460225 219.24974702 209.10047359 240.625 229.4375 C241.32109375 230.06914062 242.0171875 230.70078125 242.734375 231.3515625 C254.12385536 242.03508334 262.54675892 255.64222347 269.625 269.4375 C269.94307617 270.04916016 270.26115234 270.66082031 270.58886719 271.29101562 C290.1101366 309.27283761 291.37936881 354.10835111 278.625 394.4375 C270.37113641 419.02131524 256.48253606 439.88021723 238.625 458.4375 C238.00882812 459.11683594 237.39265625 459.79617188 236.7578125 460.49609375 C224.94044862 473.12754269 209.78037837 482.39045373 194.625 490.4375 C193.9350293 490.80713867 193.24505859 491.17677734 192.53417969 491.55761719 C168.66828352 504.13386651 133.1221126 517.06705601 106 508.8125 C91.51155945 503.02121656 80.69784349 493.47600743 74.16015625 479.25 C72.76658509 475.52058538 71.625 472.43686633 71.625 468.4375 C70.89796875 468.77523438 70.1709375 469.11296875 69.421875 469.4609375 C54.17750057 476.22318565 40.41449242 476.7878989 24.625 471.4375 C21.40241579 470.35609869 19.85401921 470.44532947 16.78125 471.87890625 C16.0397168 472.21253174 15.29818359 472.54615723 14.53417969 472.88989258 C13.73915039 473.25622803 12.94412109 473.62256348 12.125 474 C-20.34814207 488.29408215 -57.7091038 494.34506081 -91.79296875 481.9375 C-118.10102696 470.92082132 -139.3432398 450.96557088 -150.375 424.4375 C-164.20008746 388.24107287 -156.73453839 349.70929219 -141.63964844 315.20947266 C-135.24043868 301.18309667 -128.45330003 287.20130883 -118.375 275.4375 C-117.53468328 274.40117639 -116.69623758 273.36333367 -115.859375 272.32421875 C-103.94933844 257.76892729 -90.40280338 243.77666073 -75.375 232.4375 C-74.28498738 231.58260135 -73.19653845 230.72570649 -72.109375 229.8671875 C-69.94779242 228.17210488 -67.78176139 226.48316451 -65.61328125 224.796875 C-65.10555176 224.40201904 -64.59782227 224.00716309 -64.07470703 223.6003418 C-62.375 222.4375 -62.375 222.4375 -60.21826172 221.40942383 C-57.90472827 220.2634082 -56.18729844 219.28392992 -54.375 217.4375 C-53.3941763 213.79078015 -53.61361585 210.36731733 -53.875 206.625 C-53.91109375 205.64595703 -53.9471875 204.66691406 -53.984375 203.65820312 C-54.07845985 201.24727881 -54.20968549 198.84441563 -54.375 196.4375 C-55.37241211 196.49808594 -56.36982422 196.55867187 -57.39746094 196.62109375 C-61.15457386 196.84834724 -64.91195752 197.07083143 -68.66943359 197.29199219 C-70.28506916 197.3877288 -71.90063213 197.48469999 -73.51611328 197.58300781 C-113.0877003 199.98723319 -113.0877003 199.98723319 -130.16796875 186.1796875 C-140.00162222 176.92623447 -147.00996135 165.3447202 -147.65234375 151.71875 C-147.89327167 142.97159128 -148.01976189 134.55336655 -144.375 126.4375 C-144.04628906 125.62539062 -143.71757812 124.81328125 -143.37890625 123.9765625 C-137.1726083 110.01776089 -125.62202625 101.5325101 -111.6640625 96.1640625 C-104.76273299 93.97353812 -97.57928451 93.92109819 -90.40527344 93.50756836 C-88.17340204 93.37781395 -85.942217 93.2391263 -83.7109375 93.09960938 C-73.58882151 92.49122435 -63.51394069 92.3295198 -53.375 92.4375 C-53.39578613 91.47094482 -53.41657227 90.50438965 -53.43798828 89.50854492 C-53.60689851 79.95181685 -53.24458874 70.41573823 -52.73822021 60.87374878 C-52.66368624 59.43451978 -52.59473096 57.99498928 -52.53179932 56.5552063 C-51.76511817 39.39366981 -47.53303827 24.40370336 -34.66796875 12.28515625 C-24.29172473 3.92406013 -13.25339578 -0.1545514 0 0 Z M-26.375 20.4375 C-27.00019531 20.93894531 -27.62539062 21.44039062 -28.26953125 21.95703125 C-37.82227598 30.51079614 -40.60690744 42.15705343 -41.6264801 54.47599792 C-41.79045588 57.5722963 -41.90949856 60.66655869 -42.0078125 63.765625 C-42.04937469 64.88064392 -42.09093689 65.99566284 -42.13375854 67.14447021 C-42.26309906 70.65859623 -42.38173931 74.1729855 -42.5 77.6875 C-42.58652808 80.08986948 -42.67376129 82.49221368 -42.76171875 84.89453125 C-42.97428833 90.74192031 -43.17810657 96.5895632 -43.375 102.4375 C-44.15467133 102.42845642 -44.93434265 102.41941284 -45.73764038 102.41009521 C-55.42383781 102.31615546 -65.07728274 102.72700727 -74.75073242 103.18212891 C-77.56725894 103.31272065 -80.38413128 103.43186509 -83.20117188 103.55078125 C-85.02346994 103.63471532 -86.84573693 103.71932742 -88.66796875 103.8046875 C-89.49427292 103.83811249 -90.32057709 103.87153748 -91.17192078 103.90597534 C-105.20540293 104.60734401 -117.58790269 108.30245317 -127.40234375 118.8828125 C-135.2637407 129.06371073 -138.17297528 139.58009599 -136.91796875 152.21875 C-135.69741334 159.45427271 -132.74472233 165.56568562 -128.375 171.4375 C-127.818125 172.2625 -127.26125 173.0875 -126.6875 173.9375 C-119.47878162 181.73070906 -108.44164621 187.02746145 -97.80541992 187.56811523 C-88.0445456 187.53592837 -78.30810402 187.1096444 -68.55981445 186.63793945 C-65.65534438 186.49845576 -62.75057337 186.36718253 -59.84570312 186.23632812 C-57.99737252 186.14892916 -56.14906424 186.0610564 -54.30078125 185.97265625 C-53.4331868 185.93406998 -52.56559235 185.8954837 -51.67170715 185.85572815 C-47.38662873 185.74928117 -47.38662873 185.74928117 -43.375 184.4375 C-43.1019818 189.86311627 -42.9030246 195.28470198 -42.77075195 200.71557617 C-42.71560418 202.56003466 -42.64065606 204.4040158 -42.54516602 206.24682617 C-41.77113733 221.57424975 -41.77113733 221.57424975 -45.6484375 226.07861328 C-48.48825506 227.86702219 -51.27271687 229.17066507 -54.375 230.4375 C-56.26444428 231.64118652 -56.26444428 231.64118652 -57.8359375 232.921875 C-58.79757813 233.66953125 -59.75921875 234.4171875 -60.75 235.1875 C-75.52608057 246.7129313 -90.42326518 258.94399352 -102.375 273.4375 C-103.21289062 274.3759375 -104.05078125 275.314375 -104.9140625 276.28125 C-123.71345385 297.4605189 -136.66071204 326.07937901 -143.375 353.4375 C-143.53871094 354.08799316 -143.70242187 354.73848633 -143.87109375 355.40869141 C-149.83585104 380.07493464 -148.17694827 408.14350889 -135.375 430.4375 C-120.50575728 453.87368012 -99.57809143 469.82289032 -72.39453125 476.12890625 C-43.77733305 481.42290281 -15.35636314 474.24250763 10.64770508 462.42138672 C21.28898507 457.61966885 21.28898507 457.61966885 25.64453125 459.14453125 C26.23621094 459.50933594 26.82789063 459.87414062 27.4375 460.25 C37.12882539 465.58484388 47.16354705 465.30329628 57.609375 462.46875 C66.84785054 459.30947857 73.67247196 453.09417578 80.625 446.4375 C80.68107422 448.32082031 80.68107422 448.32082031 80.73828125 450.2421875 C81.29594536 465.61866149 83.09198191 478.65397767 94.875 489.75 C103.75044777 497.12138699 113.29135676 500.82707815 124.8125 500.375 C170.35048827 496.15033226 212.75174271 472.93223 242.32128906 438.45996094 C268.59525999 406.2839876 278.56686014 365.57272408 275.4140625 324.703125 C272.27175475 295.18447641 259.09642464 266.63147782 239.625 244.4375 C238.90699219 243.58671875 238.18898438 242.7359375 237.44921875 241.859375 C232.05358051 235.61078506 226.1421836 230.48363668 219.625 225.4375 C218.73425781 224.70789063 217.84351563 223.97828125 216.92578125 223.2265625 C200.27122736 209.98654058 174.53382413 196.31397056 152.625 197.4375 C152.52703125 196.75945312 152.4290625 196.08140625 152.328125 195.3828125 C151.24224414 188.62414023 149.41564564 182.68258564 146.625 176.4375 C148.38263672 176.39882813 148.38263672 176.39882813 150.17578125 176.359375 C164.40295163 175.9061066 176.18959617 173.52768268 186.8203125 163.33203125 C195.54930587 153.97493688 199.14423481 144.24255343 198.87109375 131.453125 C197.94183876 120.06606391 192.17605789 110.0654856 183.9765625 102.26171875 C175.07450412 95.35596914 166.58459634 93.24227376 155.671875 93.25390625 C154.06357819 93.25542442 154.06357819 93.25542442 152.42279053 93.25697327 C134.56034838 93.38090982 116.71190279 94.38475492 98.87268066 95.23345947 C94.85487538 95.4231669 90.83681238 95.60704565 86.8187294 95.7907629 C82.90472217 95.97002678 78.99082302 96.15156079 75.0769577 96.33389473 C73.22885652 96.4199774 71.38073785 96.50568564 69.5326004 96.59098625 C59.54789561 97.05418704 49.58533815 97.58380311 39.625 98.4375 C39.68558594 97.3952124 39.74617187 96.3529248 39.80859375 95.27905273 C40.03655536 91.33739813 40.25879945 87.39543684 40.47949219 83.45336914 C40.57498668 81.76122592 40.67194341 80.06916445 40.77050781 78.37719727 C43.1792753 49.09621125 43.1792753 49.09621125 30.625 23.4375 C22.69971584 14.95146461 11.82964812 10.70930162 0.375 10.0625 C-9.52149676 10.33932508 -18.76698008 14.2643915 -26.375 20.4375 Z " fill="#FF5621" transform="translate(191.375,0.5625)"/>
<path d="M0 0 C15.630106 2.298545 27.7648866 7.44157398 39 19 C39.63421875 19.61359375 40.2684375 20.2271875 40.921875 20.859375 C52.757187 33.11363609 57.38632142 50.80711618 57.21484375 67.40234375 C56.28438443 82.98330805 50.92431446 96.34882736 42 109 C41.56300781 109.62390625 41.12601562 110.2478125 40.67578125 110.890625 C27.31192793 128.06698903 4.15706213 136.52158185 -16.33276367 140.76611328 C-29.74883735 143.56632148 -38.26729241 148.06915143 -48.3203125 157.49609375 C-50 159 -50 159 -51 159 C-51.0093457 158.39639648 -51.01869141 157.79279297 -51.02832031 157.17089844 C-51.08291334 154.36310424 -51.16247275 151.55696276 -51.25 148.75 C-51.29302246 147.22789917 -51.29302246 147.22789917 -51.33691406 145.67504883 C-51.58175438 140.01787716 -52.15536615 135.81190186 -54.75 130.6875 C-55.90427958 127.80386965 -56.41952982 126.05360746 -55.25048828 123.11767578 C-52.7415739 118.52910403 -49.63162016 114.36614068 -46.53515625 110.16259766 C-44.21135385 106.88902233 -42.24701061 103.45117648 -40.3125 99.9375 C-39.94745361 99.27878906 -39.58240723 98.62007813 -39.20629883 97.94140625 C-35.2521274 90.73433927 -31.54748117 83.41483115 -28 76 C-27.65501465 75.28489258 -27.3100293 74.56978516 -26.95458984 73.83300781 C-15.61860047 50.1450922 -7.37195394 25.16044986 0 0 Z M8 13 C7.66379639 14.01497559 7.32759277 15.02995117 6.98120117 16.07568359 C0.10853098 36.76269749 -7.0292149 57.11048789 -16 77 C-16.34836914 77.79019531 -16.69673828 78.58039063 -17.05566406 79.39453125 C-22.96793307 92.80428538 -29.75243204 106.52297957 -38.39453125 118.390625 C-42.04418488 123.25923118 -42.04418488 123.25923118 -42.97265625 129.09765625 C-42.49882191 131.8334443 -41.88926278 134.37286368 -41 137 C-39.97519531 136.54560547 -39.97519531 136.54560547 -38.9296875 136.08203125 C-31.70330544 133.07873947 -24.63853874 131.13214976 -17 129.5 C4.29965884 124.8964153 23.74460177 116.00165049 36.62109375 97.6953125 C45.53971777 83.77247301 48.45023434 66.97538805 44.9375 50.8125 C40.60176998 35.9500208 31.72992627 24.37375633 18.578125 16.375 C14.96411894 14.4475301 12.13265539 13 8 13 Z " fill="#FF5621" transform="translate(328,278)"/>
<path d="M0 0 C0.66 0 1.32 0 2 0 C2.24645264 1.2689209 2.49290527 2.5378418 2.74682617 3.84521484 C3.68085636 8.64400674 4.62440913 13.44088852 5.57055664 18.23730469 C5.97541868 20.29638144 6.37784439 22.35593905 6.77758789 24.41601562 C9.09125202 36.32978926 11.65323952 48.0498329 15.07543945 59.69775391 C16 63 16 63 16 65 C4.13033336 70.20244963 -7.7964305 74.59001458 -21 74 C-25.15177657 72.20718739 -27.27158115 70.18459301 -29 66 C-31.06784185 47.98023527 -20.51278971 25.25734598 -9.70361328 11.32958984 C-8.23940829 9.49353893 -6.75294552 7.67945861 -5.25 5.875 C-4.7655542 5.29322998 -4.2811084 4.71145996 -3.78198242 4.11206055 C-2.56857873 2.69936823 -1.2891547 1.34392271 0 0 Z M-6 26 C-15.34816653 43.61406178 -15.34816653 43.61406178 -18 63 C-10.96871122 62.56615452 -4.670985 61.25678003 2 59 C1.33903707 51.87051216 0.08264644 44.99356001 -1.4375 38 C-1.65470703 36.95199219 -1.87191406 35.90398437 -2.09570312 34.82421875 C-2.31033203 33.83035156 -2.52496094 32.83648437 -2.74609375 31.8125 C-2.93872803 30.91144531 -3.1313623 30.01039063 -3.32983398 29.08203125 C-3.66156616 28.05142578 -3.66156616 28.05142578 -4 27 C-4.66 26.67 -5.32 26.34 -6 26 Z " fill="#FF5621" transform="translate(156,322)"/>
</svg>
